<?xml version="1.0" encoding="UTF-8" standalone="no"?>
<!-- Created with Inkscape (http://www.inkscape.org/) -->

<svg
   version="1.1"
   id="svg1"
   width="427.97589"
   height="459.832"
   viewBox="0 0 427.97589 459.832"
   xmlns="http://www.w3.org/2000/svg"
   xmlns:svg="http://www.w3.org/2000/svg">
  <defs
     id="defs1" />
  <g
     id="g1"
     transform="translate(-306.61818,-259.02108)">
    <path
       style="fill:#020202;stroke:none"
       d="m 607.80592,310.77633 38,83 h -227 c -19.74005,0 -65.53702,8.99304 -72.0571,-17 -1.91501,-7.63434 2.94083,-14.76947 9.06095,-18.89508 12.86004,-8.66913 28.64782,-12.34338 41.99615,-20.10492 v -1 c -28.06772,0 -61.16873,-5.63818 -80.2392,20 -15.96862,21.46808 -9.7608,55.75507 -9.7608,81 v 180 c 0,27.95398 -4.24609,59.11108 15.30093,82 20.98978,24.57831 56.87207,18 85.69907,18 h 205 c 27.94006,0 62.86633,6.50549 86,-12.46448 27.53302,-22.57763 19,-65.96838 19,-97.53552 h -54 c -13.841,0 -27.11615,0.70935 -40,-5.3233 -42.73163,-20.0083 -41.78467,-79.10065 -3,-102.22376 26.50159,-15.79999 67.29742,-8.45294 97,-8.45294 0,-21.61951 4.77893,-49.78204 -3.87268,-70 -4.16766,-9.73944 -10.73682,-17.95001 -20.12732,-23.0957 -4.77667,-2.6175 -11.75177,-2.76935 -15.36267,-7.05164 -5.4483,-6.46136 -8.44855,-16.23468 -11.94598,-23.85266 -6.12281,-13.33643 -12.35419,-26.62054 -18.38581,-40 -7.23193,-16.04211 -14.18799,-32.25861 -22.05865,-48 -3.9643,-7.92865 -7.25183,-16.39545 -16.24689,-19.61188 -15.85681,-5.66998 -39.07159,11.25189 -53,17.831 -43.79559,20.68689 -87.61115,41.98785 -132,61.3565 -13.14691,5.73651 -25.83447,12.45722 -39,18.1435 -4.57877,1.9776 -11.70978,4.41705 -12.41821,10.27703 -0.86023,7.11567 9.07724,6.00385 13.41821,6.00385 h 47 c 11.98437,0 25.29071,1.61591 37,-1.2392 10.33728,-2.52057 20.34622,-9.02002 30,-13.45215 16.68066,-7.6582 33.47589,-15.0559 50,-23.05017 18.31934,-8.86279 38.31976,-15.19647 56,-25.25848 m 35,202.46759 c -32.10205,6.01495 -41.646,48.66205 -14.99921,67.74304 9.03601,6.47046 21.29932,6.78937 31.99921,6.78937 19.17224,0 41.21466,2.7019 60,-1.39044 19.7868,-4.31055 14,-32.7865 14,-47.60956 0,-7.45526 0.82245,-15.18237 -5.10803,-20.78625 -6.59198,-6.22889 -15.54669,-5.21375 -23.89197,-5.21375 -19.76147,0 -42.58221,-3.17072 -62,0.46759 m 4,19.86188 c 22.59216,-3.85974 28.86206,30.87793 6,34.81177 -22.27557,3.83288 -28.72882,-30.92865 -6,-34.81177 z"
       id="path36" />
  </g>
</svg>
